<svg width="63" height="30" viewBox="0 0 63 30" fill="none" xmlns="http://www.w3.org/2000/svg">
<rect width="63" height="29.3164" fill="white"/>
<path d="M29.3164 14.6582C29.3164 22.7537 22.7537 29.3164 14.6582 29.3164C6.5627 29.3164 0 22.7537 0 14.6582C0 6.5627 6.5627 0 14.6582 0C22.7537 0 29.3164 6.5627 29.3164 14.6582Z" fill="#2563EB"/>
<path d="M12.9756 18.4921C12.7545 18.4921 12.5445 18.4065 12.3897 18.2567L9.26097 15.2294C8.94036 14.9191 8.94036 14.4057 9.26097 14.0954C9.58158 13.7852 10.1122 13.7852 10.4329 14.0954L12.9756 16.5558L18.6582 11.0574C18.9788 10.7472 19.5095 10.7472 19.8301 11.0574C20.1507 11.3676 20.1507 11.8811 19.8301 12.1913L13.5616 18.2567C13.4068 18.4065 13.1967 18.4921 12.9756 18.4921Z" fill="white"/>
<path d="M42.0045 12.5825V11.1401H35.1797V12.5825H37.7947V18.9969H39.3895V12.5825H42.0045Z" fill="#2563EB"/>
<path d="M44.587 13.0047C43.6958 13.0047 42.9336 13.2978 42.3238 13.8724C41.7023 14.447 41.3974 15.1858 41.3974 16.077C41.3974 16.98 41.7023 17.7187 42.3238 18.2933C42.9336 18.8679 43.6958 19.1494 44.587 19.1494C45.4548 19.1494 46.2053 18.8679 46.8151 18.2933C47.4249 17.7187 47.7415 16.98 47.7415 16.077C47.7415 15.1858 47.4249 14.447 46.8151 13.8724C46.2053 13.2978 45.4548 13.0047 44.587 13.0047ZM44.587 17.8243C44.1414 17.8243 43.7427 17.6718 43.4027 17.3435C43.0626 17.0269 42.8984 16.6047 42.8984 16.077C42.8984 15.561 43.0626 15.1389 43.4027 14.8105C43.7427 14.4939 44.1414 14.3298 44.587 14.3298C45.0092 14.3298 45.3962 14.4939 45.7362 14.8223C46.0646 15.1506 46.2405 15.561 46.2405 16.077C46.2405 16.593 46.0646 17.0151 45.7362 17.3435C45.3962 17.6718 45.0092 17.8243 44.587 17.8243Z" fill="#2563EB"/>
<path d="M48.7686 11.1401V18.9969H51.665C52.9549 18.9969 53.9986 18.6451 54.796 17.9181C55.5817 17.191 55.9804 16.2412 55.9804 15.0685C55.9804 13.8959 55.5817 12.9578 54.796 12.2307C53.9986 11.5037 52.9549 11.1401 51.665 11.1401H48.7686ZM50.3634 17.5546V12.5825H51.665C52.4859 12.5825 53.1426 12.817 53.6351 13.2626C54.1276 13.7083 54.3739 14.318 54.3739 15.0685C54.3739 15.8308 54.1276 16.4405 53.6351 16.8861C53.1426 17.3318 52.4859 17.5546 51.665 17.5546H50.3634Z" fill="#2563EB"/>
<path d="M59.8456 13.0047C58.9544 13.0047 58.1921 13.2978 57.5824 13.8724C56.9608 14.447 56.656 15.1858 56.656 16.077C56.656 16.98 56.9608 17.7187 57.5824 18.2933C58.1921 18.8679 58.9544 19.1494 59.8456 19.1494C60.7133 19.1494 61.4638 18.8679 62.0736 18.2933C62.6834 17.7187 63 16.98 63 16.077C63 15.1858 62.6834 14.447 62.0736 13.8724C61.4638 13.2978 60.7133 13.0047 59.8456 13.0047ZM59.8456 17.8243C59.4 17.8243 59.0013 17.6718 58.6612 17.3435C58.3211 17.0269 58.157 16.6047 58.157 16.077C58.157 15.561 58.3211 15.1389 58.6612 14.8105C59.0013 14.4939 59.4 14.3298 59.8456 14.3298C60.2677 14.3298 60.6547 14.4939 60.9948 14.8223C61.3231 15.1506 61.499 15.561 61.499 16.077C61.499 16.593 61.3231 17.0151 60.9948 17.3435C60.6547 17.6718 60.2677 17.8243 59.8456 17.8243Z" fill="#2563EB"/>
</svg>
